<?xml version="1.0" standalone="no"?>
<!DOCTYPE svg PUBLIC "-//W3C//DTD SVG 20010904//EN"
        "http://www.w3.org/TR/2001/REC-SVG-20010904/DTD/svg10.dtd">
<svg version="1.0" xmlns="http://www.w3.org/2000/svg"
     width="1140.000000pt" height="250.000000pt" viewBox="0 0 1140.000000 250.000000"
     preserveAspectRatio="xMidYMid meet">

    <g transform="translate(0.000000,250.000000) scale(0.100000,-0.100000)"
       fill="#000000" stroke="none">
        <path d="M2880 2284 c-280 -60 -517 -220 -671 -454 -139 -210 -130 -447 21
-584 74 -66 129 -89 226 -94 100 -5 169 13 244 65 100 70 113 95 305 597 98
254 180 467 182 474 7 17 -221 15 -307 -4z"/>
        <path d="M5663 2210 c-32 -13 -57 -57 -56 -98 2 -49 37 -82 91 -85 118 -4 133
168 17 188 -16 2 -40 0 -52 -5z"/>
        <path d="M5952 2205 c-37 -16 -66 -71 -56 -109 10 -40 47 -67 94 -69 36 -1 46
3 71 31 38 42 38 82 2 121 -34 37 -68 45 -111 26z"/>
        <path d="M3732 1853 c-286 -745 -306 -792 -394 -920 -54 -78 -165 -190 -242
-242 -72 -50 -225 -119 -312 -141 -104 -27 -250 -40 -349 -31 -44 4 -82 6 -85
3 -8 -7 69 -70 161 -131 262 -175 617 -220 912 -114 333 119 575 380 669 724
20 74 23 106 22 264 0 151 -4 192 -22 257 -31 112 -78 219 -134 305 -47 72
-143 183 -158 183 -4 0 -35 -71 -68 -157z"/>
        <path d="M7893 1932 c-104 -37 -166 -95 -217 -202 -30 -64 -31 -69 -35 -240
-4 -230 12 -302 90 -401 91 -115 300 -163 442 -101 96 43 183 149 206 252 15
69 12 71 -97 68 l-96 -3 -6 -30 c-23 -110 -124 -163 -227 -120 -48 20 -70 41
-96 90 -20 36 -22 56 -22 200 0 131 3 169 18 207 59 154 276 153 321 -1 l13
-46 98 -3 98 -3 -5 49 c-11 109 -93 221 -198 271 -73 34 -209 41 -287 13z"/>
        <path d="M5490 1920 c-19 -19 -20 -33 -20 -297 0 -153 5 -309 10 -347 19 -132
78 -221 182 -276 54 -29 75 -35 149 -38 189 -9 319 75 371 240 16 53 18 97 18
389 0 376 7 349 -95 349 -102 0 -95 23 -95 -323 0 -311 -5 -362 -37 -406 -73
-97 -220 -92 -275 11 -22 42 -23 50 -26 368 -3 373 3 350 -99 350 -50 0 -67
-4 -83 -20z"/>
        <path d="M6458 1929 c-17 -9 -18 -43 -18 -472 0 -347 3 -466 12 -475 15 -15
555 -17 577 -3 22 14 27 130 8 156 -14 19 -29 20 -211 23 l-196 3 0 379 c0
365 -1 380 -19 390 -25 13 -131 13 -153 -1z"/>
        <path d="M7248 1929 c-17 -9 -18 -43 -18 -472 0 -347 3 -466 12 -475 19 -19
153 -16 172 4 14 14 16 70 16 465 0 524 7 489 -102 489 -35 0 -71 -5 -80 -11z"/>
        <path d="M8588 1929 c-17 -9 -18 -43 -18 -472 0 -347 3 -466 12 -475 7 -7 41
-12 84 -12 106 0 104 -5 104 211 l0 179 165 0 165 0 0 -183 c0 -129 4 -187 12
-195 16 -16 150 -16 166 0 9 9 12 128 12 475 0 530 9 483 -99 483 -91 0 -91 1
-91 -211 l0 -179 -165 0 -165 0 0 175 c0 212 -2 215 -102 215 -35 0 -71 -5
-80 -11z"/>
        <path d="M5072 1917 c-8 -9 -12 -129 -14 -359 l-3 -346 -24 -26 c-37 -39 -88
-52 -133 -33 -43 18 -67 51 -75 103 -9 59 -17 64 -98 64 -89 0 -100 -10 -92
-80 18 -155 137 -268 292 -278 132 -8 237 54 297 176 l33 67 3 342 c2 236 0
348 -8 362 -9 19 -20 21 -89 21 -52 0 -82 -4 -89 -13z"/>
        <path d="M4710 531 c0 -88 4 -162 9 -165 5 -4 16 -3 25 0 12 5 16 21 16 70 l0
64 60 0 c53 0 60 2 60 20 0 18 -7 20 -60 20 l-60 0 0 55 0 55 75 0 c68 0 75 2
75 20 0 19 -7 20 -100 20 l-100 0 0 -159z"/>
        <path d="M5972 528 c3 -155 4 -163 23 -163 18 0 20 8 23 85 3 93 11 110 52
110 41 0 49 -17 52 -110 3 -77 5 -85 23 -85 19 0 20 7 20 97 0 86 -2 100 -21
119 -24 24 -85 29 -109 9 -13 -11 -15 -5 -15 44 0 53 -1 56 -25 56 l-25 0 2
-162z"/>
        <path d="M8253 630 c-6 -16 -18 -30 -27 -30 -26 0 -20 -38 7 -42 20 -3 22 -9
25 -85 3 -90 10 -101 63 -105 28 -3 34 1 37 19 3 17 -2 22 -25 25 -28 3 -28 4
-31 76 l-3 72 31 0 c23 0 30 4 30 20 0 16 -7 20 -30 20 -27 0 -30 3 -30 30 0
22 -5 30 -18 30 -10 0 -22 -12 -29 -30z"/>
        <path d="M7013 611 c-4 -16 -9 -17 -37 -9 -67 21 -132 -41 -109 -103 9 -24 9
-35 0 -50 -9 -14 -9 -24 -1 -37 9 -14 8 -22 -2 -37 -20 -27 -17 -62 6 -85 16
-16 33 -20 90 -20 57 0 74 4 90 20 27 27 25 66 -5 95 -20 21 -34 25 -79 25
-55 0 -81 15 -55 31 8 5 35 9 61 9 66 0 88 29 88 116 0 58 -2 64 -21 64 -12 0
-23 -8 -26 -19z m-15 -53 c7 -7 12 -21 12 -33 0 -28 -19 -45 -50 -45 -31 0
-50 17 -50 45 0 28 19 45 50 45 14 0 31 -5 38 -12z m21 -207 c18 -33 -7 -53
-64 -49 -51 3 -65 18 -51 54 9 23 103 19 115 -5z"/>
        <path d="M7206 601 c-16 -3 -38 -19 -50 -34 -19 -26 -19 -30 -5 -55 10 -18 30
-32 64 -43 55 -17 79 -44 55 -59 -26 -17 -69 -11 -82 10 -15 24 -48 27 -48 5
0 -9 11 -27 25 -40 49 -50 155 -20 155 43 0 40 -12 52 -71 71 -35 12 -55 24
-57 36 -8 36 48 47 75 15 20 -23 53 -27 53 -7 0 17 -39 53 -65 60 -11 2 -33 2
-49 -2z"/>
        <path d="M9033 593 c-18 -9 -29 -11 -31 -4 -2 6 -15 11 -28 11 l-25 0 3 -117
c3 -110 4 -118 23 -118 18 0 20 8 23 85 2 46 8 90 14 97 13 16 64 17 74 1 4
-6 10 -50 13 -97 5 -67 9 -86 21 -86 12 0 16 19 22 87 3 48 9 92 13 98 9 14
60 13 73 -3 6 -7 12 -51 14 -97 3 -77 5 -85 23 -85 19 0 20 7 20 102 0 59 -5
107 -11 113 -24 24 -72 29 -108 10 -28 -14 -38 -15 -46 -5 -17 20 -57 24 -87
8z"/>
        <path d="M4986 569 c-21 -25 -26 -41 -26 -86 0 -47 4 -59 29 -84 31 -31 83
-39 122 -19 56 31 66 153 15 197 -19 16 -40 23 -71 23 -36 0 -47 -5 -69 -31z
m114 -28 c5 -11 10 -40 10 -64 0 -57 -27 -85 -68 -71 -25 9 -27 14 -30 68 -2
34 2 64 9 72 17 21 66 18 79 -5z"/>
        <path d="M5244 587 c-2 -7 -3 -60 -2 -118 3 -96 4 -104 23 -104 18 0 20 8 23
75 3 79 17 106 56 112 28 4 36 48 9 48 -10 0 -28 -7 -40 -15 -19 -13 -22 -13
-27 0 -7 19 -35 20 -42 2z"/>
        <path d="M5460 580 c-11 -11 -20 -33 -20 -50 0 -34 23 -53 88 -70 36 -9 43
-15 40 -33 -5 -33 -65 -37 -89 -6 -10 14 -22 20 -33 16 -15 -6 -15 -9 -2 -36
18 -34 33 -41 87 -41 50 0 79 27 79 74 0 39 -6 44 -70 67 -32 11 -46 22 -48
37 -3 19 1 22 33 22 22 0 38 -6 41 -15 4 -8 15 -15 25 -15 25 0 24 25 -1 50
-14 14 -33 20 -65 20 -32 0 -51 -6 -65 -20z"/>
        <path d="M5731 579 c-43 -40 -53 -106 -26 -164 30 -61 107 -74 156 -26 33 33
36 49 13 58 -11 4 -23 -3 -36 -20 -22 -31 -58 -35 -82 -11 -18 18 -22 95 -6
125 16 29 64 25 88 -8 13 -17 25 -24 36 -20 23 9 20 25 -13 58 -37 36 -95 40
-130 8z"/>
        <path d="M6270 515 c0 -130 36 -176 113 -147 22 8 34 8 43 1 27 -22 34 3 34
117 0 114 0 115 -22 112 -22 -3 -23 -9 -26 -88 -3 -90 -12 -110 -47 -110 -35
0 -44 20 -47 110 -3 79 -4 85 -25 88 -22 3 -23 1 -23 -83z"/>
        <path d="M6572 483 c2 -97 6 -118 18 -118 12 0 16 18 20 81 3 47 11 88 19 98
16 19 66 21 78 4 4 -7 10 -51 13 -98 5 -77 7 -85 25 -85 17 0 21 8 23 45 6 72
-7 145 -29 169 -22 24 -86 29 -108 9 -11 -10 -14 -10 -18 0 -3 6 -13 12 -24
12 -19 0 -19 -7 -17 -117z"/>
        <path d="M7400 580 c0 -18 7 -20 55 -20 30 0 55 -3 55 -7 0 -4 -25 -39 -55
-78 -76 -100 -75 -105 29 -105 47 0 87 4 90 8 11 18 -13 31 -62 34 l-52 3 48
60 c57 70 75 102 67 115 -3 6 -44 10 -91 10 -77 0 -84 -2 -84 -20z"/>
        <path d="M7679 571 c-24 -25 -29 -37 -29 -81 0 -81 38 -130 101 -130 43 0 89
37 89 71 0 16 -33 9 -56 -12 -27 -25 -67 -20 -84 11 -17 33 -3 40 76 40 l74 0
0 34 c0 22 -9 45 -26 65 -22 26 -33 31 -71 31 -36 0 -50 -6 -74 -29z m102 -21
c10 -6 19 -20 19 -30 0 -17 -7 -20 -50 -20 -43 0 -50 3 -50 20 0 33 44 49 81
30z"/>
        <path d="M7942 483 c3 -110 4 -118 23 -118 18 0 20 8 25 85 3 47 9 91 13 98
10 15 59 16 75 0 7 -7 12 -42 12 -89 0 -57 4 -80 15 -89 28 -24 37 3 34 98 -3
71 -8 94 -23 111 -21 23 -74 28 -107 11 -13 -7 -19 -7 -19 0 0 5 -11 10 -25
10 l-26 0 3 -117z"/>
        <path d="M8452 483 c3 -110 4 -118 23 -118 18 0 20 8 23 65 3 97 8 108 45 118
22 6 33 15 35 30 4 26 -25 30 -59 10 -17 -10 -23 -10 -26 0 -3 6 -13 12 -24
12 -19 0 -19 -7 -17 -117z"/>
        <path d="M8660 515 c0 -130 36 -176 113 -147 22 8 34 8 43 1 27 -22 34 3 34
117 0 107 -1 114 -20 114 -18 0 -20 -7 -20 -72 0 -86 -15 -122 -51 -126 -38
-5 -48 15 -51 108 -3 79 -4 85 -25 88 -22 3 -23 1 -23 -83z"/>
    </g>
</svg>
